<?xml version="1.0" standalone="no"?>
<!DOCTYPE svg PUBLIC "-//W3C//DTD SVG 20010904//EN"
 "http://www.w3.org/TR/2001/REC-SVG-20010904/DTD/svg10.dtd">
<svg version="1.0" xmlns="http://www.w3.org/2000/svg"
 width="210.000000pt" height="210.000000pt" viewBox="0 0 210.000000 210.000000"
 preserveAspectRatio="xMidYMid meet">

<g transform="translate(0.000000,210.000000) scale(0.100000,-0.100000)"
fill="#EB2188" stroke="none">
<path d="M982 1995 c-83 -23 -157 -64 -214 -117 -56 -52 -41 -49 50 9 128 82
280 111 417 79 74 -18 148 -55 164 -84 5 -9 13 -14 17 -9 14 13 -75 85 -133
107 -76 29 -226 36 -301 15z"/>
<path d="M1035 1954 c-146 -31 -286 -118 -325 -201 -18 -38 -21 -58 -17 -102
8 -73 -9 -110 -82 -180 -46 -45 -61 -67 -69 -101 l-10 -45 -1 38 c-1 50 17 82
78 140 l52 48 -2 92 c-1 51 1 103 4 117 6 20 4 19 -8 -5 -8 -18 -14 -61 -15
-108 l0 -78 -64 -62 c-55 -53 -65 -69 -75 -114 -22 -106 24 -204 114 -244 22
-10 41 -17 42 -15 1 1 -4 24 -12 51 -9 34 -10 44 -2 31 34 -55 71 -86 120
-102 70 -22 68 -20 52 -57 -17 -41 -41 -161 -64 -318 l-18 -124 -28 2 c-40 3
-72 38 -98 107 -16 45 -23 55 -25 38 -5 -36 27 -120 55 -142 14 -11 41 -20 60
-20 32 0 34 -2 31 -27 -3 -24 -7 -28 -33 -25 -16 2 -43 12 -59 24 l-29 21 6
-22 c8 -34 -10 -25 -39 19 -15 22 -32 40 -39 40 -15 0 -55 88 -56 127 l-1 28
-8 -30 c-8 -30 -8 -30 -9 8 -1 29 -5 37 -19 37 -13 0 -23 -13 -32 -41 -8 -23
-16 -37 -18 -30 -2 6 -8 11 -14 11 -7 0 -9 -23 -6 -65 3 -36 4 -65 2 -65 -10
0 -29 50 -34 90 l-7 45 -8 -43 c-5 -31 -11 -40 -18 -33 -38 38 -51 -29 -16
-85 l21 -34 -31 0 c-39 0 -41 -21 -5 -63 51 -61 94 -87 140 -87 49 0 59 16 17
26 -55 11 -81 26 -119 65 -43 44 -36 48 50 26 47 -12 58 -22 70 -59 3 -10 33
-32 68 -50 52 -26 75 -32 128 -33 46 0 74 5 92 17 24 16 27 16 43 -2 16 -18
16 -20 -20 -35 -158 -65 -243 -59 -365 29 -69 50 -83 45 -30 -9 91 -93 213
-125 324 -86 33 11 72 33 88 48 25 24 30 25 43 13 8 -8 17 -40 20 -70 8 -84
23 -120 48 -120 25 0 41 21 52 68 3 18 8 32 10 32 2 0 25 -9 52 -21 34 -15 62
-20 96 -16 41 3 47 2 47 -14 0 -11 -7 -19 -17 -20 -15 0 -15 -2 2 -9 11 -5 16
-9 10 -10 -5 -1 0 -5 12 -10 12 -5 34 -5 50 0 15 4 22 9 14 9 -10 1 -11 4 -2
15 6 7 14 35 18 62 3 29 16 61 30 77 47 58 24 63 -38 9 -72 -63 -90 -72 -141
-72 -27 0 -48 5 -48 11 0 5 -4 7 -10 4 -5 -3 -27 2 -47 11 -49 23 -48 21 -32
40 13 16 12 16 -8 3 -27 -16 -41 -6 -22 18 13 17 13 17 -6 1 -20 -16 -22 -16
-53 9 l-33 26 28 31 28 31 -31 -28 -31 -28 -32 26 c-23 20 -29 31 -22 43 4 9
6 23 4 30 -5 12 33 62 47 62 12 0 4 -78 -10 -96 -14 -18 -14 -18 6 -1 36 30
50 19 18 -15 l-29 -33 28 25 c37 32 57 71 57 109 0 24 3 28 20 24 34 -9 22 15
-17 36 -67 36 -69 37 -53 58 13 16 12 16 -8 -1 -26 -23 -29 -11 -5 18 13 15 9
13 -11 -4 l-29 -25 7 49 c3 27 14 59 24 70 14 17 14 18 1 8 -18 -13 -18 -14
11 133 11 55 17 84 26 133 8 43 20 48 28 12 10 -51 82 -136 139 -165 73 -36
146 -35 189 4 27 24 32 36 36 90 9 125 20 55 26 -171 8 -300 17 -433 27 -393
4 17 7 82 8 146 l1 117 25 -2 c14 0 25 -6 25 -13 0 -13 72 -27 111 -21 23 3
24 7 29 91 3 49 3 91 1 93 -2 2 -33 4 -68 4 -49 0 -63 -3 -63 -15 0 -8 -7 -15
-15 -15 -8 0 -24 -14 -34 -30 l-18 -30 -7 127 c-3 69 -9 136 -12 148 -5 21 -2
23 78 27 157 10 284 73 304 152 10 40 -12 101 -50 144 -25 28 -35 49 -39 87
-4 39 -12 55 -37 78 l-31 28 25 20 c36 28 50 88 36 152 -12 60 -51 129 -82
152 -38 26 -43 16 -10 -18 61 -63 94 -213 58 -262 -12 -17 -14 -8 -12 72 1 86
-1 94 -29 134 -17 24 -46 52 -65 63 l-35 20 23 -25 c30 -34 28 -42 -8 -24 -43
22 -45 19 -16 -20 l27 -35 -37 25 c-39 26 -70 34 -58 13 4 -6 -8 -2 -27 9 -42
26 -84 39 -75 25 8 -13 -24 -31 -43 -24 -10 3 -12 0 -8 -12 8 -21 3 -20 -46 8
-23 14 -60 28 -82 33 l-40 8 50 5 c47 6 48 7 25 17 -23 11 -20 12 28 12 59 1
67 13 20 29 -31 11 -30 11 20 8 44 -3 50 -1 40 11 -10 12 -7 13 18 8 16 -4 44
-11 62 -17 50 -15 51 -1 1 21 -63 27 -133 32 -214 15z m321 -397 c6 -42 5 -45
-23 -55 l-30 -10 9 47 c5 25 6 66 3 91 l-5 45 20 -37 c11 -21 23 -57 26 -81z
m41 3 c4 -31 2 -50 -4 -50 -6 0 -13 26 -15 58 -3 31 -8 66 -12 77 -4 11 0 7 9
-8 9 -15 19 -50 22 -77z m83 -113 c0 -53 2 -58 28 -68 33 -13 79 -55 98 -91
15 -29 18 -86 6 -104 -4 -6 -72 -19 -150 -29 -79 -10 -167 -23 -195 -30 l-52
-13 45 0 c25 -1 109 9 188 21 78 13 142 21 142 19 0 -1 -28 -16 -62 -32 -84
-39 -196 -51 -359 -40 -68 5 -129 10 -135 10 -7 0 -15 15 -18 34 -4 18 -24 61
-46 95 -57 88 -80 135 -89 186 l-8 45 39 0 c35 0 39 3 45 30 7 38 23 49 23 17
0 -14 7 -28 17 -31 15 -6 15 -8 3 -17 -25 -17 200 0 240 18 19 9 52 15 74 14
63 -3 146 18 146 37 0 15 2 15 10 2 5 -8 10 -41 10 -73z m-520 -388 c0 -15 7
-33 16 -40 14 -11 18 -10 30 6 8 10 14 26 14 35 0 15 5 15 60 2 53 -13 58 -17
49 -33 -12 -23 3 -25 21 -4 19 23 30 18 30 -15 0 -41 -39 -80 -80 -80 -17 0
-49 9 -71 20 -46 24 -150 102 -144 109 3 2 11 -1 19 -8 17 -14 26 4 27 57 l1
37 13 -30 c8 -16 14 -42 15 -56z m260 -53 c0 -82 -41 -126 -118 -126 -46 0
-139 45 -160 78 -13 19 -7 17 37 -12 89 -60 156 -59 199 4 12 18 22 46 22 61
0 16 5 29 10 29 6 0 10 -15 10 -34z m242 -218 c-5 -13 -7 -34 -5 -48 6 -57 -4
-70 -53 -70 l-46 0 6 31 c3 17 6 49 6 70 l0 39 50 0 c47 0 49 -1 42 -22z
m-122 -12 c0 -3 -4 -8 -10 -11 -5 -3 -10 -1 -10 4 0 6 5 11 10 11 6 0 10 -2
10 -4z m-9 -56 c5 0 9 -7 9 -15 0 -8 -4 -15 -9 -15 -11 0 -21 26 -20 48 1 15
2 15 6 0 2 -10 9 -18 14 -18z m-951 -170 c0 -17 -34 5 -64 41 -46 54 -30 69
19 17 25 -26 45 -52 45 -58z m426 39 c3 -6 -7 -25 -24 -42 -31 -31 -31 -31
-30 -6 1 13 9 33 17 43 9 11 10 16 4 12 -8 -4 -13 -1 -13 9 0 12 4 14 19 5 11
-5 23 -15 27 -21z"/>
<path d="M1382 1446 c-29 -8 -55 -16 -59 -20 -4 -3 -15 1 -25 11 -22 20 -24 6
-2 -18 11 -13 25 -16 50 -12 30 5 35 2 44 -23 8 -20 8 -35 0 -52 -9 -21 -15
-23 -51 -17 -31 5 -40 4 -34 -5 22 -36 97 -30 110 9 4 13 12 18 23 14 13 -4
12 -2 -3 10 -20 16 -20 16 2 17 12 0 24 4 27 9 3 4 -5 6 -17 4 -17 -4 -26 2
-35 22 -16 34 -17 32 18 39 17 3 30 10 30 16 0 12 -11 12 -78 -4z"/>
<path d="M1057 1400 c-58 -10 -68 -17 -35 -25 29 -7 148 11 162 25 12 12 -54
12 -127 0z"/>
<path d="M1140 1309 c-20 -17 -34 -20 -70 -16 -40 5 -43 4 -25 -9 25 -18 65
-18 93 2 12 8 22 11 22 6 0 -6 -17 -17 -37 -25 -26 -11 -31 -16 -18 -16 32 -1
63 26 63 54 0 14 -1 25 -2 25 0 -1 -12 -10 -26 -21z"/>
<path d="M1396 773 c-9 -10 -7 -51 3 -57 15 -9 53 28 46 44 -6 16 -38 24 -49
13z m24 -22 c0 -11 -4 -23 -10 -26 -6 -4 -10 5 -10 19 0 14 5 26 10 26 6 0 10
-9 10 -19z"/>
<path d="M1562 1474 c13 -30 18 -57 14 -76 -5 -26 -4 -29 9 -18 21 18 19 56
-7 101 -30 54 -41 49 -16 -7z"/>
<path d="M1528 1009 c-20 -11 -24 -34 -8 -44 5 -3 7 0 4 8 -6 17 13 34 46 40
l25 4 -25 1 c-14 1 -33 -3 -42 -9z"/>
<path d="M1669 984 c38 -32 39 -57 4 -91 -27 -24 -31 -25 -114 -18 -48 3 -89
3 -92 -2 -3 -4 11 -9 31 -10 21 0 60 -4 87 -8 43 -6 55 -3 85 17 52 35 54 104
5 126 -39 18 -40 15 -6 -14z"/>
<path d="M849 943 c-13 -16 -12 -17 4 -4 9 7 17 15 17 17 0 8 -8 3 -21 -13z"/>
<path d="M1545 950 c4 -6 -10 -10 -35 -10 -37 0 -100 -23 -100 -36 0 -2 10 1
22 7 12 6 44 14 71 18 28 3 52 12 55 19 2 6 -1 12 -8 12 -6 0 -8 -4 -5 -10z"/>
<path d="M839 903 l-24 -28 28 24 c15 14 27 26 27 28 0 8 -8 1 -31 -24z"/>
<path d="M829 863 c-13 -16 -12 -17 4 -4 9 7 17 15 17 17 0 8 -8 3 -21 -13z"/>
<path d="M824 828 l-19 -23 23 19 c21 18 27 26 19 26 -2 0 -12 -10 -23 -22z"/>
<path d="M537 793 c-12 -21 -17 -66 -10 -90 6 -23 9 -18 14 32 6 60 5 73 -4
58z"/>
<path d="M849 393 c-13 -16 -12 -17 4 -4 16 13 21 21 13 21 -2 0 -10 -8 -17
-17z"/>
<path d="M876 375 c-11 -8 -17 -17 -14 -20 2 -3 13 4 23 15 21 23 18 25 -9 5z"/>
<path d="M998 173 c12 -2 30 -2 40 0 9 3 -1 5 -23 4 -22 0 -30 -2 -17 -4z"/>
<path d="M1013 153 c15 -2 37 -2 50 0 12 2 0 4 -28 4 -27 0 -38 -2 -22 -4z"/>
<path d="M898 143 c7 -3 16 -2 19 1 4 3 -2 6 -13 5 -11 0 -14 -3 -6 -6z"/>
<path d="M1213 143 c9 -2 23 -2 30 0 6 3 -1 5 -18 5 -16 0 -22 -2 -12 -5z"/>
<path d="M1093 133 c9 -2 23 -2 30 0 6 3 -1 5 -18 5 -16 0 -22 -2 -12 -5z"/>
<path d="M1168 103 c12 -2 32 -2 45 0 12 2 2 4 -23 4 -25 0 -35 -2 -22 -4z"/>
</g>
</svg>
