<?xml version="1.0" standalone="no"?>
<!DOCTYPE svg PUBLIC "-//W3C//DTD SVG 20010904//EN"
 "http://www.w3.org/TR/2001/REC-SVG-20010904/DTD/svg10.dtd">
<svg version="1.0" xmlns="http://www.w3.org/2000/svg"
 width="392.000000pt" height="68.000000pt" viewBox="0 0 392.000000 68.000000"
 preserveAspectRatio="xMidYMid meet">

<g transform="translate(0.000000,68.000000) scale(0.100000,-0.100000)"
fill="#CCA000" stroke="none">
<path d="M593 655 c-36 -15 -39 -25 -21 -54 9 -15 0 -54 -46 -207 -32 -104
-66 -198 -77 -210 -37 -39 -26 -44 95 -44 63 0 117 4 121 10 3 5 0 18 -7 29
-10 17 -8 33 11 93 34 111 42 127 63 134 37 11 38 -10 5 -104 -30 -86 -31 -93
-17 -119 33 -58 140 -65 192 -12 34 33 38 63 8 54 -26 -8 -25 2 5 98 33 104
32 131 -5 169 -28 27 -36 30 -79 26 -28 -3 -62 -14 -80 -27 -17 -12 -31 -21
-31 -18 0 2 9 30 20 62 11 32 20 66 20 77 0 10 -9 27 -20 38 -24 24 -107 27
-157 5z"/>
<path d="M2359 661 c-65 -21 -99 -63 -99 -121 0 -25 -4 -30 -25 -30 -35 0 -41
-23 -16 -57 l21 -28 -35 -115 c-24 -78 -41 -120 -56 -131 -39 -29 -14 -39 102
-39 89 0 111 3 115 15 4 8 1 21 -5 28 -7 10 0 46 28 138 37 122 38 124 68 127
67 7 70 62 4 62 -53 0 -68 24 -47 75 17 41 46 48 46 11 0 -37 26 -56 74 -56
76 0 101 61 43 104 -23 17 -45 21 -110 23 -45 1 -94 -2 -108 -6z"/>
<path d="M3743 655 c-34 -15 -41 -33 -22 -52 9 -9 9 -23 -1 -58 -10 -36 -16
-45 -29 -39 -24 11 -98 17 -126 10 -36 -9 -93 -63 -117 -110 -29 -56 -36 -162
-14 -204 31 -60 112 -80 174 -42 l33 20 26 -20 c61 -48 183 -5 183 63 0 10 -7
13 -20 10 -11 -3 -20 -2 -20 2 0 4 25 88 55 188 30 99 55 186 55 194 0 7 -9
22 -20 33 -24 24 -107 27 -157 5z m-54 -214 c0 -3 -15 -51 -33 -106 -26 -82
-35 -100 -51 -100 -27 0 -31 49 -10 121 18 62 55 107 79 98 9 -3 16 -9 15 -13z"/>
<path d="M200 511 c-121 -39 -190 -123 -190 -228 0 -99 62 -147 190 -146 110
0 196 48 241 136 46 89 29 181 -40 221 -37 21 -157 32 -201 17z m90 -95 c0
-32 -37 -153 -59 -195 -14 -26 -51 -28 -51 -3 0 28 29 132 51 181 31 70 59 78
59 17z"/>
<path d="M1073 509 c-41 -12 -49 -25 -33 -54 11 -20 7 -40 -24 -141 -24 -81
-42 -124 -57 -135 -39 -29 -14 -39 102 -39 89 0 111 3 115 15 4 8 1 21 -4 28
-8 10 -3 38 18 105 31 102 43 122 71 122 25 0 24 -14 -6 -94 -32 -84 -32 -126
-2 -153 30 -28 70 -36 118 -23 47 13 79 41 79 71 0 16 -4 19 -20 14 -24 -8
-24 -12 1 71 25 85 43 114 69 114 26 0 25 -16 -5 -96 -14 -36 -25 -81 -25 -98
0 -37 30 -70 73 -80 36 -8 103 10 128 35 22 22 26 64 5 56 -25 -10 -25 3 0 81
37 119 32 172 -17 197 -55 29 -118 14 -168 -39 l-24 -26 -14 29 c-16 32 -50
51 -94 51 -36 0 -64 -13 -101 -48 -27 -25 -28 -25 -28 -4 0 45 -75 65 -157 41z"/>
<path d="M1806 501 c-54 -36 -91 -120 -47 -106 21 6 22 4 42 -120 17 -108 26
-131 61 -148 l31 -15 -31 -16 c-38 -20 -62 -21 -62 -2 0 27 -41 66 -69 66 -93
0 -86 -124 9 -150 87 -23 190 21 287 123 114 121 170 281 124 355 -26 40 -67
44 -99 9 -30 -32 -31 -113 -1 -151 l20 -26 -22 -39 c-23 -42 -47 -59 -54 -38
-2 6 -9 50 -15 97 -14 108 -26 146 -53 165 -29 21 -86 19 -121 -4z"/>
<path d="M2634 499 c-56 -21 -115 -72 -140 -121 -9 -16 -18 -53 -21 -82 -4
-42 -1 -57 19 -85 37 -56 78 -74 166 -74 96 -1 150 22 208 85 99 107 81 252
-35 287 -57 16 -139 13 -197 -10z m124 -66 c4 -27 -55 -208 -73 -223 -26 -22
-48 -4 -40 32 15 71 54 181 71 199 21 23 38 20 42 -8z"/>
<path d="M3103 499 c-100 -39 -177 -160 -158 -249 26 -118 214 -155 348 -70
65 41 107 116 107 192 0 50 -4 62 -31 92 -17 20 -47 40 -67 46 -57 16 -142 11
-199 -11z m124 -56 c8 -20 -18 -123 -48 -193 -15 -35 -27 -50 -40 -50 -27 0
-25 41 6 137 34 109 66 149 82 106z"/>
</g>
</svg>
