<svg width="1920" height="1080" viewBox="0 0 1920 1080" fill="none" xmlns="http://www.w3.org/2000/svg">
<g clip-path="url(#clip0_15_833)">
<path d="M0 779.4L32 750.96C64 722.34 128 665.46 192 638.46C256 611.46 320 614.34 384 610.2C448 606.06 512 594.54 576 579.96C640 565.2 704 547.2 768 597.6C832 648 896 766.8 960 810.54C1024 854.46 1088 823.14 1152 797.4C1216 771.66 1280 751.14 1344 771.84C1408 792.54 1472 854.46 1536 805.5C1600 756.54 1664 597.06 1728 507.6C1792 418.14 1856 399.06 1888 389.34L1920 379.8V1081.8H1888C1856 1081.8 1792 1081.8 1728 1081.8C1664 1081.8 1600 1081.8 1536 1081.8C1472 1081.8 1408 1081.8 1344 1081.8C1280 1081.8 1216 1081.8 1152 1081.8C1088 1081.8 1024 1081.8 960 1081.8C896 1081.8 832 1081.8 768 1081.8C704 1081.8 640 1081.8 576 1081.8C512 1081.8 448 1081.8 384 1081.8C320 1081.8 256 1081.8 192 1081.8C128 1081.8 64 1081.8 32 1081.8H0V779.4Z" fill="#967AA1"/>
<path d="M0 370.8L32 411.84C64 453.06 128 535.14 192 577.26C256 619.2 320 621 384 643.14C448 665.46 512 707.94 576 675.9C640 643.86 704 536.94 768 471.24C832 405.54 896 381.06 960 403.2C1024 425.34 1088 494.46 1152 553.86C1216 613.26 1280 662.94 1344 631.26C1408 599.4 1472 486 1536 461.16C1600 436.14 1664 499.86 1728 496.26C1792 492.66 1856 421.74 1888 386.46L1920 351V1081.8H1888C1856 1081.8 1792 1081.8 1728 1081.8C1664 1081.8 1600 1081.8 1536 1081.8C1472 1081.8 1408 1081.8 1344 1081.8C1280 1081.8 1216 1081.8 1152 1081.8C1088 1081.8 1024 1081.8 960 1081.8C896 1081.8 832 1081.8 768 1081.8C704 1081.8 640 1081.8 576 1081.8C512 1081.8 448 1081.8 384 1081.8C320 1081.8 256 1081.8 192 1081.8C128 1081.8 64 1081.8 32 1081.8H0V370.8Z" fill="#77648D"/>
<path d="M0 849.6L32 817.56C64 785.34 128 721.26 192 658.44C256 595.8 320 534.6 384 530.46C448 526.14 512 579.06 576 638.64C640 698.4 704 765 768 802.26C832 839.34 896 847.26 960 862.56C1024 877.86 1088 900.54 1152 909.9C1216 919.26 1280 914.94 1344 872.46C1408 829.8 1472 748.8 1536 680.04C1600 611.46 1664 554.94 1728 567.36C1792 579.6 1856 660.6 1888 701.1L1920 741.6V1081.8H1888C1856 1081.8 1792 1081.8 1728 1081.8C1664 1081.8 1600 1081.8 1536 1081.8C1472 1081.8 1408 1081.8 1344 1081.8C1280 1081.8 1216 1081.8 1152 1081.8C1088 1081.8 1024 1081.8 960 1081.8C896 1081.8 832 1081.8 768 1081.8C704 1081.8 640 1081.8 576 1081.8C512 1081.8 448 1081.8 384 1081.8C320 1081.8 256 1081.8 192 1081.8C128 1081.8 64 1081.8 32 1081.8H0V849.6Z" fill="#595079"/>
<path d="M0 793.8L32 816.3C64 838.8 128 883.8 192 902.16C256 920.34 320 912.06 384 879.66C448 847.26 512 790.74 576 743.94C640 697.14 704 660.06 768 676.44C832 693 896 763.2 960 822.96C1024 882.54 1088 931.86 1152 905.04C1216 878.4 1280 775.8 1344 772.2C1408 768.6 1472 864 1536 874.44C1600 885.06 1664 810.54 1728 753.84C1792 697.14 1856 658.26 1888 638.64L1920 619.2V1081.8H1888C1856 1081.8 1792 1081.8 1728 1081.8C1664 1081.8 1600 1081.8 1536 1081.8C1472 1081.8 1408 1081.8 1344 1081.8C1280 1081.8 1216 1081.8 1152 1081.8C1088 1081.8 1024 1081.8 960 1081.8C896 1081.8 832 1081.8 768 1081.8C704 1081.8 640 1081.8 576 1081.8C512 1081.8 448 1081.8 384 1081.8C320 1081.8 256 1081.8 192 1081.8C128 1081.8 64 1081.8 32 1081.8H0V793.8Z" fill="#3A3C65"/>
<path d="M0 801L32 797.4C64 793.8 128 786.6 192 796.14C256 805.86 320 832.14 384 853.2C448 874.26 512 889.74 576 910.26C640 930.6 704 955.8 768 969.3C832 982.8 896 984.6 960 973.44C1024 962.46 1088 938.34 1152 921.6C1216 904.86 1280 895.14 1344 900C1408 904.86 1472 923.94 1536 921.96C1600 919.8 1664 896.4 1728 898.2C1792 900 1856 927 1888 940.5L1920 954V1081.8H1888C1856 1081.8 1792 1081.8 1728 1081.8C1664 1081.8 1600 1081.8 1536 1081.8C1472 1081.8 1408 1081.8 1344 1081.8C1280 1081.8 1216 1081.8 1152 1081.8C1088 1081.8 1024 1081.8 960 1081.8C896 1081.8 832 1081.8 768 1081.8C704 1081.8 640 1081.8 576 1081.8C512 1081.8 448 1081.8 384 1081.8C320 1081.8 256 1081.8 192 1081.8C128 1081.8 64 1081.8 32 1081.8H0V801Z" fill="#192A51"/>
</g>
<defs>
<clipPath id="clip0_15_833">
<rect width="1920" height="1080" fill="white"/>
</clipPath>
</defs>
</svg>
