<?xml version="1.0" standalone="no"?>
<!DOCTYPE svg PUBLIC "-//W3C//DTD SVG 20010904//EN"
 "http://www.w3.org/TR/2001/REC-SVG-20010904/DTD/svg10.dtd">
<svg version="1.0" xmlns="http://www.w3.org/2000/svg"
 width="48.000000pt" height="38.000000pt" viewBox="0 0 48.000000 38.000000"
 preserveAspectRatio="xMidYMid meet">

<g transform="translate(0.000000,38.000000) scale(0.100000,-0.100000)"
fill="#000000" stroke="none">
<path d="M153 359 c-49 -24 -140 -119 -149 -155 -5 -19 3 -39 30 -79 116 -168
299 -165 415 5 42 62 38 84 -31 156 -87 92 -177 117 -265 73z m155 -14 c38
-17 99 -70 133 -117 l20 -28 -32 -45 c-38 -53 -107 -102 -155 -111 -76 -14
-165 30 -223 111 l-32 45 20 28 c81 112 178 154 269 117z"/>
<path d="M185 255 c-33 -32 -33 -78 0 -110 32 -33 78 -33 110 0 30 30 35 76 6
68 -23 -6 -54 25 -48 48 8 29 -38 24 -68 -6z"/>
</g>
</svg>
