<svg width="14" height="14" viewBox="0 0 14 14" fill="none" xmlns="http://www.w3.org/2000/svg">
<path fill-rule="evenodd" clip-rule="evenodd" d="M9.02001 1.77L9.03001 1.76L10.02 2.75V0.5L9.52001 0H0.52001L0.0100098 0.5V0.993008L0 1.00003V11.29L0.36 11.75L5.36 13.47L6 13V12H9.52003L10.02 11.5V9.25L9.02003 10.25V11H6V2.71003L5.67 2.25003L2.03619 1H5.01001H9.02001V1.77ZM5 12.28L1 10.94V1.72003L5 3.06003V12.28ZM8.08998 5.53005H13.06V6.53005H8.12998L9.71998 8.13005L9.00998 8.83005L6.53998 6.37005V5.66005L9.02998 3.18005L9.72998 3.88005L8.08998 5.53005Z" fill="#C5C5C5"/>
</svg>
